# xmcd
#
# Track frame offsets:
# 150
# 13652
# 26256
# 39958
# 51362
# 64757
# 76894
# 89385
# 100257
# 111811
# 123838
# 134848
# 149907
# 161647
# 171705
# 186434
# 199539
# 209394
# 218741
# 230445
# 242112
# 254436
# 264171
# 277536
# 288996
# 301033
# 313293
#
# Disc length: 4329 seconds
#
# Revision: 0
# Processed by: cddbd v1.4PL0 Copyright (c) Steve Scherf et al.
# Submitted via: Audion 3.0.2 (http://www.panic.com/audion/)
#
DISCID=8a10e71b
DTITLE=Various Artist - Atlantic Rhythm and Blues (3)
DYEAR=1900
DGENRE=
TTITLE0=DoorIsStillOpen
TTITLE1=FlipFlopFly
TTITLE2=AFoolForYou
TTITLE3=ThisLittleGirlofMine
TTITLE4=PlahItFair
TTITLE5=Adorable
TTITLE6=SmokeyJoesCafe
TTITLE7=RubyBaby
TTITLE8=InParadise
TTITLE9=TheChickenAndTheHawk
TTITLE10=DevilOrAngel
TTITLE11=DrownInMyOwnTears
TTITLE12=HailelujahILoveHerSo
TTITLE13=JimDandy
TTITLE14=DownInMexico
TTITLE15=CorrineCorrina
TTITLE16=TreasureOfLove
TTITLE17=LoveLoveLove
TTITLE18=ItsTooLate
TTITLE19=LonelyAvenue
TTITLE20=SinceIMetYou
TTITLE21=LuckyLips
TTITLE22=WithoutLove
TTITLE23=FoolsFallInLove
TTITLE24=MidnightSpecialTrain
TTITLE25=EmptyArms
TTITLE26=CCRider
EXTD=
EXTT0=
EXTT1=
EXTT2=
EXTT3=
EXTT4=
EXTT5=
EXTT6=
EXTT7=
EXTT8=
EXTT9=
EXTT10=
EXTT11=
EXTT12=
EXTT13=
EXTT14=
EXTT15=
EXTT16=
EXTT17=
EXTT18=
EXTT19=
EXTT20=
EXTT21=
EXTT22=
EXTT23=
EXTT24=
EXTT25=
EXTT26=
PLAYORDER=
